<?xml version="1.0" encoding="UTF-8" standalone="no"?>
<!DOCTYPE svg PUBLIC "-//W3C//DTD SVG 1.1//EN" "http://www.w3.org/Graphics/SVG/1.1/DTD/svg11.dtd">
<svg width="100%" height="100%" viewBox="0 0 183 47" version="1.1" xmlns="http://www.w3.org/2000/svg" xmlns:xlink="http://www.w3.org/1999/xlink" xml:space="preserve" xmlns:serif="http://www.serif.com/" style="fill-rule:evenodd;clip-rule:evenodd;stroke-linejoin:round;stroke-miterlimit:2;">
    <path d="M7.341,40.658L4.675,42.281C2.621,43.516 0,42.042 0,39.645L0,7.363C0,4.951 2.621,3.477 4.675,4.728L13.58,10.133C13.178,10.058 12.761,10.014 12.329,10.014C8.1,10.014 4.661,13.349 4.452,17.518L7.817,17.518C8.309,17.518 8.8,17.92 8.83,18.427C8.86,18.978 8.413,19.439 7.862,19.439L4.452,19.439L4.452,21.315L7.862,21.315C8.413,21.315 8.86,21.762 8.83,22.328C8.8,22.849 8.338,23.236 7.817,23.236L4.452,23.236L4.452,25.097L7.817,25.097C8.309,25.097 8.8,25.514 8.83,26.021C8.86,26.572 8.413,27.033 7.862,27.033L4.452,27.033C4.661,31.202 8.1,34.523 12.329,34.523C12.463,34.523 12.597,34.508 12.746,34.508L11.153,36.22L11.153,38.35L11.019,38.424L9.679,38.424C8.428,38.424 7.4,39.422 7.341,40.658ZM31.284,26.14L13.505,36.92L13.505,34.434C17.168,33.883 20.012,30.8 20.191,27.033L16.781,27.033C16.23,27.033 15.798,26.572 15.813,26.021C15.843,25.514 16.334,25.097 16.841,25.097L20.206,25.097L20.206,23.236L16.781,23.236C16.23,23.236 15.798,22.775 15.813,22.224C15.843,21.703 16.32,21.315 16.841,21.315L20.206,21.315L20.206,19.439L16.841,19.439C16.334,19.439 15.843,19.037 15.813,18.531C15.798,17.98 16.23,17.518 16.781,17.518L20.191,17.518C20.116,15.895 19.551,14.406 18.642,13.185L31.284,20.869C33.264,22.06 33.264,24.934 31.284,26.14Z" style="fill:url(#_Linear1);"/>
    <path d="M12.746,34.508L11.153,36.22L11.153,38.35L11.019,38.424L9.679,38.424C8.428,38.424 7.4,39.422 7.341,40.658L4.675,42.281C2.621,43.516 0,42.042 0,39.645L0,7.363C0,4.951 2.621,3.477 4.675,4.728L13.58,10.133C13.178,10.058 12.761,10.014 12.329,10.014C8.1,10.014 4.661,13.349 4.452,17.518L7.817,17.518C8.309,17.518 8.8,17.92 8.83,18.427C8.86,18.978 8.413,19.439 7.862,19.439L4.452,19.439L4.452,21.315L7.862,21.315C8.413,21.315 8.86,21.762 8.83,22.328C8.8,22.849 8.338,23.236 7.817,23.236L4.452,23.236L4.452,25.097L7.817,25.097C8.309,25.097 8.8,25.514 8.83,26.021C8.86,26.572 8.413,27.033 7.862,27.033L4.452,27.033C4.661,31.202 8.1,34.523 12.329,34.523C12.463,34.523 12.597,34.508 12.746,34.508ZM23.02,31.143L13.505,36.92L13.505,34.434C17.168,33.883 20.012,30.8 20.191,27.033L16.781,27.033C16.23,27.033 15.798,26.572 15.813,26.021C15.843,25.514 16.334,25.097 16.841,25.097L20.206,25.097L20.206,23.236L16.781,23.236C16.23,23.236 15.798,22.775 15.813,22.224C15.843,21.703 16.32,21.315 16.841,21.315L20.206,21.315L20.206,19.767C20.906,21.435 21.501,23.162 21.978,24.949C22.544,27.093 22.886,29.162 23.02,31.143ZM16.781,17.518L19.164,17.518C19.481,18.144 19.779,18.784 20.057,19.439L16.841,19.439C16.334,19.439 15.843,19.037 15.813,18.531C15.798,17.98 16.23,17.518 16.781,17.518Z" style="fill:url(#_Linear2);"/>
    <path d="M4.452,20.645L4.452,19.439L7.862,19.439C8.413,19.439 8.86,18.978 8.83,18.427C8.8,17.92 8.309,17.518 7.817,17.518L4.452,17.518C4.661,13.349 8.1,10.014 12.329,10.014C12.761,10.014 13.178,10.058 13.58,10.133L4.675,4.728C2.621,3.477 0,4.951 0,7.363L0,16.982C1.31,18.308 2.799,19.529 4.452,20.645ZM8.83,22.328C8.86,21.762 8.413,21.315 7.862,21.315L5.48,21.315C6.442,21.911 7.45,22.467 8.502,22.983C8.696,22.819 8.815,22.581 8.83,22.328ZM31.284,20.869L18.642,13.185C19.551,14.406 20.116,15.895 20.191,17.518L16.781,17.518C16.23,17.518 15.798,17.98 15.813,18.531C15.843,19.037 16.334,19.439 16.841,19.439L20.206,19.439L20.206,21.315L16.841,21.315C16.32,21.315 15.843,21.703 15.813,22.224C15.798,22.775 16.23,23.236 16.781,23.236L20.206,23.236L20.206,25.097L16.841,25.097C16.453,25.097 16.096,25.336 15.918,25.663C17.377,26.021 18.881,26.304 20.414,26.482C24.33,26.959 28.038,26.78 31.388,26.065C33.25,24.829 33.22,22.045 31.284,20.869Z" style="fill:url(#_Linear3);"/>
    <path d="M31.284,26.14L13.505,36.92L13.505,34.433C17.168,33.883 20.012,30.8 20.191,27.033L16.781,27.033C16.23,27.033 15.798,26.572 15.813,26.02C15.843,25.514 16.334,25.097 16.841,25.097L20.206,25.097L20.206,23.236L16.781,23.236C16.23,23.236 15.798,22.775 15.813,22.224C15.843,21.702 16.32,21.315 16.841,21.315L20.206,21.315L20.206,19.439L16.841,19.439C16.334,19.439 15.843,19.037 15.813,18.531C15.798,17.98 16.23,17.518 16.781,17.518L20.191,17.518C20.131,16.387 19.834,15.315 19.357,14.362C19.705,14.322 20.052,14.287 20.399,14.257L31.284,20.869C33.264,22.06 33.264,24.934 31.284,26.14ZM0,39.645L0,27.48C1.191,25.231 2.799,23.132 4.735,21.315L7.862,21.315C8.413,21.315 8.86,21.762 8.83,22.328C8.8,22.849 8.338,23.236 7.817,23.236L4.452,23.236L4.452,25.097L7.817,25.097C8.309,25.097 8.8,25.514 8.83,26.02C8.86,26.572 8.413,27.033 7.862,27.033L4.452,27.033C4.661,31.202 8.1,34.523 12.329,34.523C12.463,34.523 12.597,34.508 12.746,34.508L11.153,36.22L11.153,38.35L11.019,38.424L9.679,38.424C8.428,38.424 7.4,39.422 7.341,40.658L4.675,42.281C2.621,43.516 0,42.042 0,39.645ZM6.924,19.439C7.519,18.992 8.135,18.571 8.77,18.174C8.8,18.248 8.83,18.337 8.83,18.427C8.86,18.978 8.413,19.439 7.862,19.439L6.924,19.439Z" style="fill:url(#_Linear4);"/>
    <g transform="matrix(0.681394,0,0,0.681394,7.17249,8.41224)">
        <text x="37.566px" y="36.937px" style="font-family:'ArialMT', 'Arial', sans-serif;font-size:41.917px;fill:rgb(242,242,242);">UV Podster</text>
    </g>
    <defs>
        <linearGradient id="_Linear1" x1="0" y1="0" x2="1" y2="0" gradientUnits="userSpaceOnUse" gradientTransform="matrix(41.5189,41.5189,-41.5189,41.5189,23.5406,-11.1315)"><stop offset="0" style="stop-color:rgb(253,109,109);stop-opacity:1"/><stop offset="1" style="stop-color:rgb(249,117,53);stop-opacity:1"/></linearGradient>
        <linearGradient id="_Linear2" x1="0" y1="0" x2="1" y2="0" gradientUnits="userSpaceOnUse" gradientTransform="matrix(23.7446,-22.5119,22.5119,23.7446,-23.1895,6.72857)"><stop offset="0" style="stop-color:white;stop-opacity:1"/><stop offset="0.99" style="stop-color:rgb(217,55,190);stop-opacity:1"/><stop offset="1" style="stop-color:rgb(216,55,191);stop-opacity:1"/></linearGradient>
        <linearGradient id="_Linear3" x1="0" y1="0" x2="1" y2="0" gradientUnits="userSpaceOnUse" gradientTransform="matrix(11.8924,37.2381,-37.2381,11.8924,20.5912,-6.66742)"><stop offset="0" style="stop-color:rgb(253,109,109);stop-opacity:1"/><stop offset="0.5" style="stop-color:rgb(113,56,29);stop-opacity:1"/><stop offset="1" style="stop-color:rgb(249,117,53);stop-opacity:1"/></linearGradient>
        <linearGradient id="_Linear4" x1="0" y1="0" x2="1" y2="0" gradientUnits="userSpaceOnUse" gradientTransform="matrix(27.1961,33.3902,-33.3902,27.1961,8.7631,-10.274)"><stop offset="0" style="stop-color:rgb(253,109,109);stop-opacity:1"/><stop offset="1" style="stop-color:black;stop-opacity:1"/></linearGradient>
    </defs>
</svg>
